<mxfile host="app.diagrams.net" modified="2023-11-06T19:00:35.862Z" agent="Mozilla/5.0 (Windows NT 10.0; Win64; x64) AppleWebKit/537.36 (KHTML, like Gecko) Chrome/116.0.0.0 Safari/537.36 OPR/102.0.0.0" etag="hnEgXV1quZFr6Trf9S45" version="21.8.2" type="github">
  <diagram name="Страница — 1" id="IaKaTJfduq8mSORf9WSC">
    <mxGraphModel dx="1441" dy="774" grid="0" gridSize="10" guides="1" tooltips="1" connect="1" arrows="1" fold="1" page="1" pageScale="1" pageWidth="827" pageHeight="1169" background="#004C99" math="0" shadow="0">
      <root>
        <mxCell id="0" />
        <mxCell id="1" parent="0" />
        <mxCell id="Ul0TzwLHomj5LyWwxXSF-1" value="" style="swimlane;startSize=0;fillColor=#dae8fc;strokeColor=#6c8ebf;" vertex="1" parent="1">
          <mxGeometry x="80" y="100" width="170" height="480" as="geometry">
            <mxRectangle x="80" y="100" width="50" height="40" as="alternateBounds" />
          </mxGeometry>
        </mxCell>
        <mxCell id="Ul0TzwLHomj5LyWwxXSF-28" value="" style="edgeStyle=orthogonalEdgeStyle;rounded=0;orthogonalLoop=1;jettySize=auto;html=1;fillColor=#dae8fc;strokeColor=#6c8ebf;" edge="1" parent="Ul0TzwLHomj5LyWwxXSF-1" source="Ul0TzwLHomj5LyWwxXSF-5" target="Ul0TzwLHomj5LyWwxXSF-9">
          <mxGeometry relative="1" as="geometry" />
        </mxCell>
        <mxCell id="Ul0TzwLHomj5LyWwxXSF-5" value="Трудовой договор&amp;nbsp;" style="ellipse;whiteSpace=wrap;html=1;fillColor=#dae8fc;strokeColor=#6c8ebf;" vertex="1" parent="Ul0TzwLHomj5LyWwxXSF-1">
          <mxGeometry x="32.5" y="50" width="95" height="60" as="geometry" />
        </mxCell>
        <mxCell id="Ul0TzwLHomj5LyWwxXSF-26" value="" style="edgeStyle=orthogonalEdgeStyle;rounded=0;orthogonalLoop=1;jettySize=auto;html=1;fillColor=#dae8fc;strokeColor=#6c8ebf;" edge="1" parent="Ul0TzwLHomj5LyWwxXSF-1" source="Ul0TzwLHomj5LyWwxXSF-6" target="Ul0TzwLHomj5LyWwxXSF-7">
          <mxGeometry relative="1" as="geometry" />
        </mxCell>
        <mxCell id="Ul0TzwLHomj5LyWwxXSF-6" value="Хранение" style="rounded=1;whiteSpace=wrap;html=1;fillColor=#dae8fc;strokeColor=#6c8ebf;" vertex="1" parent="Ul0TzwLHomj5LyWwxXSF-1">
          <mxGeometry x="20" y="300" width="120" height="60" as="geometry" />
        </mxCell>
        <mxCell id="Ul0TzwLHomj5LyWwxXSF-7" value="Уничтожение&amp;nbsp;" style="rounded=1;whiteSpace=wrap;html=1;fillColor=#dae8fc;strokeColor=#6c8ebf;" vertex="1" parent="Ul0TzwLHomj5LyWwxXSF-1">
          <mxGeometry x="20" y="380" width="120" height="60" as="geometry" />
        </mxCell>
        <mxCell id="Ul0TzwLHomj5LyWwxXSF-20" value="" style="edgeStyle=orthogonalEdgeStyle;rounded=0;orthogonalLoop=1;jettySize=auto;html=1;fillColor=#dae8fc;strokeColor=#6c8ebf;" edge="1" parent="Ul0TzwLHomj5LyWwxXSF-1" source="Ul0TzwLHomj5LyWwxXSF-9" target="Ul0TzwLHomj5LyWwxXSF-8">
          <mxGeometry relative="1" as="geometry" />
        </mxCell>
        <mxCell id="Ul0TzwLHomj5LyWwxXSF-9" value="Получение&amp;nbsp;" style="rounded=1;whiteSpace=wrap;html=1;fillColor=#dae8fc;strokeColor=#6c8ebf;" vertex="1" parent="Ul0TzwLHomj5LyWwxXSF-1">
          <mxGeometry x="20" y="140" width="120" height="60" as="geometry" />
        </mxCell>
        <mxCell id="Ul0TzwLHomj5LyWwxXSF-25" value="" style="edgeStyle=orthogonalEdgeStyle;rounded=0;orthogonalLoop=1;jettySize=auto;html=1;fillColor=#dae8fc;strokeColor=#6c8ebf;" edge="1" parent="Ul0TzwLHomj5LyWwxXSF-1" source="Ul0TzwLHomj5LyWwxXSF-8" target="Ul0TzwLHomj5LyWwxXSF-6">
          <mxGeometry relative="1" as="geometry" />
        </mxCell>
        <mxCell id="Ul0TzwLHomj5LyWwxXSF-8" value="Обработка&amp;nbsp;" style="rounded=1;whiteSpace=wrap;html=1;fillColor=#dae8fc;strokeColor=#6c8ebf;" vertex="1" parent="Ul0TzwLHomj5LyWwxXSF-1">
          <mxGeometry x="20" y="220" width="120" height="60" as="geometry" />
        </mxCell>
        <mxCell id="Ul0TzwLHomj5LyWwxXSF-10" value="Отдел кадров&amp;nbsp;" style="rounded=0;whiteSpace=wrap;html=1;fillColor=#dae8fc;strokeColor=#6c8ebf;glass=1;shadow=1;" vertex="1" parent="Ul0TzwLHomj5LyWwxXSF-1">
          <mxGeometry x="25" y="10" width="120" height="30" as="geometry" />
        </mxCell>
        <mxCell id="Ul0TzwLHomj5LyWwxXSF-3" value="" style="swimlane;startSize=0;fillColor=#dae8fc;strokeColor=#6c8ebf;" vertex="1" parent="1">
          <mxGeometry x="330" y="100" width="169" height="485" as="geometry">
            <mxRectangle x="80" y="120" width="50" height="40" as="alternateBounds" />
          </mxGeometry>
        </mxCell>
        <mxCell id="Ul0TzwLHomj5LyWwxXSF-14" value="Финансовый отдел" style="rounded=0;whiteSpace=wrap;html=1;fillColor=#dae8fc;strokeColor=#6c8ebf;glass=1;shadow=1;" vertex="1" parent="Ul0TzwLHomj5LyWwxXSF-3">
          <mxGeometry x="17" y="10" width="135" height="30" as="geometry" />
        </mxCell>
        <mxCell id="Ul0TzwLHomj5LyWwxXSF-30" value="" style="edgeStyle=orthogonalEdgeStyle;rounded=0;orthogonalLoop=1;jettySize=auto;html=1;fillColor=#dae8fc;strokeColor=#6c8ebf;" edge="1" parent="Ul0TzwLHomj5LyWwxXSF-3" source="Ul0TzwLHomj5LyWwxXSF-17" target="Ul0TzwLHomj5LyWwxXSF-18">
          <mxGeometry relative="1" as="geometry" />
        </mxCell>
        <mxCell id="Ul0TzwLHomj5LyWwxXSF-17" value="Обработка&amp;nbsp;" style="rounded=1;whiteSpace=wrap;html=1;fillColor=#dae8fc;strokeColor=#6c8ebf;" vertex="1" parent="Ul0TzwLHomj5LyWwxXSF-3">
          <mxGeometry x="21" y="220" width="120" height="60" as="geometry" />
        </mxCell>
        <mxCell id="Ul0TzwLHomj5LyWwxXSF-31" value="" style="edgeStyle=orthogonalEdgeStyle;rounded=0;orthogonalLoop=1;jettySize=auto;html=1;fillColor=#dae8fc;strokeColor=#6c8ebf;" edge="1" parent="Ul0TzwLHomj5LyWwxXSF-3" source="Ul0TzwLHomj5LyWwxXSF-18" target="Ul0TzwLHomj5LyWwxXSF-19">
          <mxGeometry relative="1" as="geometry" />
        </mxCell>
        <mxCell id="Ul0TzwLHomj5LyWwxXSF-18" value="Хранение" style="rounded=1;whiteSpace=wrap;html=1;fillColor=#dae8fc;strokeColor=#6c8ebf;" vertex="1" parent="Ul0TzwLHomj5LyWwxXSF-3">
          <mxGeometry x="21" y="310" width="120" height="60" as="geometry" />
        </mxCell>
        <mxCell id="Ul0TzwLHomj5LyWwxXSF-19" value="Уничтожение&amp;nbsp;" style="rounded=1;whiteSpace=wrap;html=1;fillColor=#dae8fc;strokeColor=#6c8ebf;" vertex="1" parent="Ul0TzwLHomj5LyWwxXSF-3">
          <mxGeometry x="21" y="390" width="120" height="60" as="geometry" />
        </mxCell>
        <mxCell id="Ul0TzwLHomj5LyWwxXSF-4" value="" style="swimlane;startSize=0;fillColor=#dae8fc;strokeColor=#6c8ebf;" vertex="1" parent="1">
          <mxGeometry x="570" y="105" width="170" height="480" as="geometry">
            <mxRectangle x="80" y="120" width="50" height="40" as="alternateBounds" />
          </mxGeometry>
        </mxCell>
        <mxCell id="Ul0TzwLHomj5LyWwxXSF-32" value="Отдел услуг и взаимодействий с клиентом" style="rounded=0;whiteSpace=wrap;html=1;fillColor=#dae8fc;strokeColor=#6c8ebf;glass=1;shadow=1;" vertex="1" parent="Ul0TzwLHomj5LyWwxXSF-4">
          <mxGeometry x="17.5" y="5" width="135" height="45" as="geometry" />
        </mxCell>
        <mxCell id="Ul0TzwLHomj5LyWwxXSF-38" value="" style="edgeStyle=orthogonalEdgeStyle;rounded=0;orthogonalLoop=1;jettySize=auto;html=1;fillColor=#dae8fc;strokeColor=#6c8ebf;" edge="1" parent="Ul0TzwLHomj5LyWwxXSF-4" source="Ul0TzwLHomj5LyWwxXSF-33" target="Ul0TzwLHomj5LyWwxXSF-34">
          <mxGeometry relative="1" as="geometry" />
        </mxCell>
        <mxCell id="Ul0TzwLHomj5LyWwxXSF-33" value="Трудовой договор&amp;nbsp;" style="ellipse;whiteSpace=wrap;html=1;fillColor=#dae8fc;strokeColor=#6c8ebf;" vertex="1" parent="Ul0TzwLHomj5LyWwxXSF-4">
          <mxGeometry x="37.5" y="55" width="95" height="60" as="geometry" />
        </mxCell>
        <mxCell id="Ul0TzwLHomj5LyWwxXSF-39" value="" style="edgeStyle=orthogonalEdgeStyle;rounded=0;orthogonalLoop=1;jettySize=auto;html=1;fillColor=#dae8fc;strokeColor=#6c8ebf;" edge="1" parent="Ul0TzwLHomj5LyWwxXSF-4" source="Ul0TzwLHomj5LyWwxXSF-34" target="Ul0TzwLHomj5LyWwxXSF-35">
          <mxGeometry relative="1" as="geometry" />
        </mxCell>
        <mxCell id="Ul0TzwLHomj5LyWwxXSF-34" value="Получение&amp;nbsp;" style="rounded=1;whiteSpace=wrap;html=1;fillColor=#dae8fc;strokeColor=#6c8ebf;" vertex="1" parent="Ul0TzwLHomj5LyWwxXSF-4">
          <mxGeometry x="25" y="135" width="120" height="60" as="geometry" />
        </mxCell>
        <mxCell id="Ul0TzwLHomj5LyWwxXSF-40" value="" style="edgeStyle=orthogonalEdgeStyle;rounded=0;orthogonalLoop=1;jettySize=auto;html=1;fillColor=#dae8fc;strokeColor=#6c8ebf;" edge="1" parent="Ul0TzwLHomj5LyWwxXSF-4" source="Ul0TzwLHomj5LyWwxXSF-35" target="Ul0TzwLHomj5LyWwxXSF-36">
          <mxGeometry relative="1" as="geometry" />
        </mxCell>
        <mxCell id="Ul0TzwLHomj5LyWwxXSF-35" value="Обработка&amp;nbsp;" style="rounded=1;whiteSpace=wrap;html=1;fillColor=#dae8fc;strokeColor=#6c8ebf;" vertex="1" parent="Ul0TzwLHomj5LyWwxXSF-4">
          <mxGeometry x="25" y="215" width="120" height="60" as="geometry" />
        </mxCell>
        <mxCell id="Ul0TzwLHomj5LyWwxXSF-41" value="" style="edgeStyle=orthogonalEdgeStyle;rounded=0;orthogonalLoop=1;jettySize=auto;html=1;fillColor=#dae8fc;strokeColor=#6c8ebf;" edge="1" parent="Ul0TzwLHomj5LyWwxXSF-4" source="Ul0TzwLHomj5LyWwxXSF-36" target="Ul0TzwLHomj5LyWwxXSF-37">
          <mxGeometry relative="1" as="geometry" />
        </mxCell>
        <mxCell id="Ul0TzwLHomj5LyWwxXSF-36" value="Хранение" style="rounded=1;whiteSpace=wrap;html=1;fillColor=#dae8fc;strokeColor=#6c8ebf;" vertex="1" parent="Ul0TzwLHomj5LyWwxXSF-4">
          <mxGeometry x="25" y="295" width="120" height="60" as="geometry" />
        </mxCell>
        <mxCell id="Ul0TzwLHomj5LyWwxXSF-37" value="Уничтожение&amp;nbsp;" style="rounded=1;whiteSpace=wrap;html=1;fillColor=#dae8fc;strokeColor=#6c8ebf;" vertex="1" parent="Ul0TzwLHomj5LyWwxXSF-4">
          <mxGeometry x="25" y="385" width="120" height="60" as="geometry" />
        </mxCell>
        <mxCell id="Ul0TzwLHomj5LyWwxXSF-16" value="" style="edgeStyle=orthogonalEdgeStyle;rounded=0;orthogonalLoop=1;jettySize=auto;html=1;entryX=0;entryY=0.5;entryDx=0;entryDy=0;fillColor=#dae8fc;strokeColor=#6c8ebf;" edge="1" parent="1" source="Ul0TzwLHomj5LyWwxXSF-8" target="Ul0TzwLHomj5LyWwxXSF-17">
          <mxGeometry relative="1" as="geometry">
            <mxPoint x="310" y="360" as="targetPoint" />
          </mxGeometry>
        </mxCell>
        <mxCell id="Ul0TzwLHomj5LyWwxXSF-43" value="" style="edgeStyle=orthogonalEdgeStyle;rounded=0;orthogonalLoop=1;jettySize=auto;html=1;entryX=1;entryY=0.5;entryDx=0;entryDy=0;fillColor=#dae8fc;strokeColor=#6c8ebf;" edge="1" parent="1" source="Ul0TzwLHomj5LyWwxXSF-35" target="Ul0TzwLHomj5LyWwxXSF-17">
          <mxGeometry relative="1" as="geometry">
            <mxPoint x="495" y="350" as="targetPoint" />
          </mxGeometry>
        </mxCell>
      </root>
    </mxGraphModel>
  </diagram>
</mxfile>
